<svg width="1200" height="1200" xmlns="http://www.w3.org/2000/svg" xmlns:xlink="http://www.w3.org/1999/xlink" version="1.1"><g transform="scale(12) translate(0, -0.0020017623901367188)">                        <g fill="#111111"><g xmlns="http://www.w3.org/2000/svg"><path d="M57.246,48.615C54.946,47.751,54,47.183,54,46.29c0-0.756,0.568-1.515,2.325-1.515   c1.949,0,3.192,0.62,3.896,0.92l0.784-3.058c-0.892-0.432-2.108-0.81-3.922-0.893v-2.379h-2.652v2.569   c-2.894,0.566-4.571,2.433-4.571,4.813c0,2.626,1.977,3.977,4.87,4.951c2.001,0.679,2.868,1.325,2.868,2.354   c0,1.083-1.058,1.677-2.598,1.677c-1.758,0-3.354-0.57-4.491-1.19l-0.811,3.166c1.028,0.595,2.786,1.08,4.599,1.16v2.569h2.649   v-2.757c3.112-0.54,4.815-2.596,4.815-5.003C61.763,51.239,60.464,49.752,57.246,48.615z"/><path d="M85.382,67.167c-1.917,0-3.678,0.648-5.095,1.727l-10.633-9.032c1.837-2.697,2.913-5.954,2.913-9.463   c0-3.001-0.794-5.814-2.173-8.254l8.35-5.962c1.727,1.647,4.062,2.665,6.638,2.665c5.311,0,9.618-4.307,9.618-9.619   c0-5.313-4.308-9.622-9.618-9.622c-5.315,0-9.623,4.309-9.623,9.622c0,1.436,0.322,2.795,0.888,4.019l-8.356,5.969   c-2.067-2.318-4.757-4.062-7.814-4.96l0.918-5.105c2.957-0.378,5.252-2.876,5.252-5.936c0-3.321-2.691-6.014-6.013-6.014   s-6.013,2.693-6.013,6.014c0,2.308,1.315,4.289,3.225,5.296l-0.923,5.115c-0.395-0.027-0.792-0.06-1.193-0.06   c-3.711,0-7.129,1.215-9.913,3.25l-14.238-15.66c0.746-1.136,1.183-2.493,1.183-3.953c0-3.985-3.231-7.217-7.214-7.217   c-3.986,0-7.217,3.232-7.217,7.217s3.231,7.214,7.217,7.214c1.215,0,2.358-0.303,3.363-0.834l14.238,15.661   c-2.504,2.821-4.067,6.481-4.22,10.512l-19.872,1.373c-0.955-2.865-3.653-4.935-6.839-4.935C8.231,46.191,5,49.423,5,53.409   c0,3.983,3.231,7.213,7.217,7.213c3.534,0,6.469-2.542,7.088-5.897l19.865-1.373c0.869,4.899,3.85,9.056,7.973,11.51l-3.887,8.509   c-0.572-0.122-1.164-0.19-1.773-0.19c-4.651,0-8.42,3.771-8.42,8.42c0,4.647,3.77,8.416,8.42,8.416   c4.648,0,8.416-3.769,8.416-8.416c0-2.752-1.325-5.187-3.365-6.724l3.887-8.508c1.67,0.556,3.451,0.868,5.308,0.868   c4.491,0,8.559-1.77,11.579-4.635l10.638,9.036c-0.627,1.178-0.983,2.521-0.983,3.948c0,4.648,3.77,8.417,8.42,8.417   c4.646,0,8.416-3.769,8.416-8.417C93.798,70.937,90.027,67.167,85.382,67.167z M56.947,58.678v2.757h-2.649v-2.569   c-1.813-0.08-3.571-0.565-4.599-1.16l0.811-3.166c1.137,0.62,2.733,1.19,4.491,1.19c1.54,0,2.598-0.594,2.598-1.677   c0-1.028-0.867-1.675-2.868-2.354c-2.894-0.975-4.87-2.325-4.87-4.951c0-2.379,1.678-4.247,4.571-4.813v-2.569h2.652v2.379   c1.813,0.083,3.03,0.46,3.922,0.893l-0.784,3.058c-0.704-0.301-1.947-0.92-3.896-0.92c-1.757,0-2.325,0.758-2.325,1.515   c0,0.893,0.946,1.461,3.246,2.325c3.218,1.137,4.517,2.624,4.517,5.06C61.763,56.082,60.06,58.138,56.947,58.678z"/></g></g>        </g></svg>