<svg width="1080" height="962" viewBox="0 0 1080 962" fill="none" xmlns="http://www.w3.org/2000/svg">
<path d="M626.952 464.356C599.352 453.988 588 447.172 588 436.456C588 427.384 594.816 418.276 615.9 418.276C639.288 418.276 654.204 425.716 662.652 429.316L672.06 392.62C661.356 387.436 646.764 382.9 624.996 381.904V353.356H593.172V384.184C558.444 390.976 538.32 413.38 538.32 441.94C538.32 473.452 562.044 489.664 596.76 501.352C620.772 509.5 631.176 517.252 631.176 529.6C631.176 542.596 618.48 549.724 600 549.724C578.904 549.724 559.752 542.884 546.108 535.444L536.376 573.436C548.712 580.576 569.808 586.396 591.564 587.356V618.184H623.352V585.1C660.696 578.62 681.132 553.948 681.132 525.064C681.156 495.844 665.568 478 626.952 464.356Z" fill="#FCFCFC"/>
<path d="M964.584 686.98C941.58 686.98 920.448 694.756 903.444 707.704L775.848 599.32C797.892 566.956 810.804 527.872 810.804 485.764C810.804 449.752 801.276 415.996 784.728 386.716L884.928 315.172C905.652 334.936 933.672 347.152 964.584 347.152C1028.32 347.152 1080 295.468 1080 231.724C1080 167.968 1028.3 116.26 964.584 116.26C900.804 116.26 849.108 167.968 849.108 231.724C849.108 248.956 852.972 265.264 859.764 279.952L759.492 351.58C734.688 323.764 702.408 302.836 665.724 292.06L676.74 230.8C712.224 226.264 739.764 196.288 739.764 159.568C739.764 119.716 707.472 87.4 667.608 87.4C627.744 87.4 595.452 119.716 595.452 159.568C595.452 187.264 611.232 211.036 634.152 223.12L623.076 284.5C618.336 284.176 613.572 283.78 608.76 283.78C564.228 283.78 523.212 298.36 489.804 322.78L318.948 134.86C327.9 121.228 333.144 104.944 333.144 87.424C333.144 39.604 294.372 0.819992 246.576 0.819992C198.744 0.819992 159.972 39.604 159.972 87.424C159.972 135.244 198.744 173.992 246.576 173.992C261.156 173.992 274.872 170.356 286.932 163.984L457.788 351.916C427.74 385.768 408.984 429.688 407.148 478.06L168.684 494.536C157.224 460.156 124.848 435.316 86.616 435.316C38.772 435.268 0 474.052 0 521.884C0 569.68 38.772 608.44 86.604 608.44C129.012 608.44 164.232 577.936 171.66 537.676L410.04 521.2C420.468 579.988 456.24 629.872 505.716 659.32L459.072 761.428C452.208 759.964 445.104 759.148 437.796 759.148C381.984 759.148 336.756 804.4 336.756 860.188C336.756 915.952 381.996 961.18 437.796 961.18C493.572 961.18 538.788 915.952 538.788 860.188C538.788 827.164 522.888 797.944 498.408 779.5L545.052 677.404C565.092 684.076 586.464 687.82 608.748 687.82C662.64 687.82 711.456 666.58 747.696 632.2L875.352 740.632C867.828 754.768 863.556 770.884 863.556 788.008C863.556 843.784 908.796 889.012 964.596 889.012C1020.35 889.012 1065.59 843.784 1065.59 788.008C1065.58 732.22 1020.32 686.98 964.584 686.98ZM623.364 585.112V618.196H591.576V587.368C569.82 586.408 548.724 580.588 536.388 573.448L546.12 535.456C559.764 542.896 578.916 549.736 600.012 549.736C618.492 549.736 631.188 542.608 631.188 529.612C631.188 517.276 620.784 509.512 596.772 501.364C562.044 489.664 538.332 473.464 538.332 441.952C538.332 413.404 558.468 390.988 593.184 384.196V353.368H625.008V381.916C646.764 382.912 661.368 387.436 672.072 392.632L662.664 429.328C654.216 425.716 639.3 418.288 615.912 418.288C594.828 418.288 588.012 427.384 588.012 436.468C588.012 447.184 599.364 454 626.964 464.368C665.58 478.012 681.168 495.856 681.168 525.088C681.156 553.96 660.72 578.632 623.364 585.112Z" fill="#FCFCFC"/>
</svg>
